<svg width="40" height="40" viewBox="0 0 40 40" fill="none" xmlns="http://www.w3.org/2000/svg">
<g clip-path="url(#clip0_731_4583)">
<path d="M33.333 12.333V29.833C33.333 32.6663 31.1663 34.833 28.333 34.833H9.83301C9.83301 36.6663 11.333 38.1663 13.1663 38.1663H29.9997C33.6663 38.1663 36.6663 35.1663 36.6663 31.4997V15.6663C36.6663 13.833 35.1663 12.333 33.333 12.333Z" fill="white"/>
<path d="M8.33301 1.83301V5.16634H6.66634C4.83301 5.16634 3.33301 6.66634 3.33301 8.49967V28.4997C3.33301 30.333 4.83301 31.833 6.66634 31.833H26.9997C28.833 31.833 30.333 30.333 30.333 28.4997V8.49967C30.333 6.66634 28.833 5.16634 26.9997 5.16634H25.333V1.83301H21.9997V5.16634H11.6663V1.83301H8.33301ZM6.66634 13.4997H26.9997V28.4997H6.66634V13.4997Z" fill="white"/>
<path d="M22.8333 27.1667L18.8333 24.8333L15 27.1667L16 22.6667L12.5 19.6667L17.1667 19.3333L19 15L20.8333 19.1667L25.5 19.6667L22 22.6667L22.8333 27.1667Z" fill="white"/>
</g>
<defs>
<clipPath id="clip0_731_4583">
<rect width="40" height="40" fill="white"/>
</clipPath>
</defs>
</svg>
