<svg width="40" height="40" viewBox="0 0 40 40" fill="none" xmlns="http://www.w3.org/2000/svg">
<g clip-path="url(#clip0_731_11894)">
<path d="M20.0003 18.0337C23.2817 18.0337 25.9419 15.3735 25.9419 12.0921C25.9419 8.81056 23.2817 6.15039 20.0003 6.15039C16.7188 6.15039 14.0586 8.81056 14.0586 12.0921C14.0586 15.3735 16.7188 18.0337 20.0003 18.0337Z" fill="white"/>
<path d="M27.5501 19.8747L26.1501 19.458L20.0001 25.6163L13.85 19.458L12.45 19.8747C8.82496 20.9663 6.3916 24.233 6.3916 28.0163V34.9997H33.6083V28.0163C33.6084 24.233 31.1752 20.9663 27.5501 19.8747Z" fill="white"/>
<path d="M27.0249 5C26.0177 5 25.0524 5.27151 24.2051 5.75647C26.254 7.12122 27.6081 9.45039 27.6081 12.0914C27.6081 13.6568 27.132 15.1126 26.3183 16.3235C26.5521 16.3529 26.7874 16.375 27.0249 16.375C30.1665 16.375 32.7165 13.825 32.7165 10.6834C32.7165 7.5499 30.1665 5 27.0249 5Z" fill="white"/>
<path d="M34.2171 18.0416L32.8588 17.6416L30.8652 19.6353C33.5851 21.4902 35.2756 24.5756 35.2756 28.0166V32.5H40.0005V25.8166C40.0005 22.2083 37.6755 19.0833 34.2171 18.0416Z" fill="white"/>
<path d="M15.7946 5.75647C14.9474 5.27151 13.982 5 12.9749 5C9.83319 5 7.2832 7.5499 7.2832 10.6834C7.2832 13.825 9.83319 16.375 12.9749 16.375C13.2123 16.375 13.4476 16.3528 13.6813 16.3235C12.8676 15.1127 12.3915 13.6568 12.3915 12.0914C12.3915 9.45039 13.7456 7.12122 15.7946 5.75647Z" fill="white"/>
<path d="M7.14171 17.6416L5.79169 18.0416H5.78331C2.32502 19.0833 0 22.2083 0 25.8166V32.5H4.72495V28.0166C4.72495 24.5749 6.4163 21.4889 9.13479 19.6347L7.14171 17.6416Z" fill="white"/>
</g>
<defs>
<clipPath id="clip0_731_11894">
<rect width="40" height="40" fill="white"/>
</clipPath>
</defs>
</svg>
