<svg width="40" height="40" viewBox="0 0 40 40" fill="none" xmlns="http://www.w3.org/2000/svg">
<path d="M9.12012 18.0895C9.12012 19.9055 10.2256 21.4735 11.8164 21.926C13.0088 25.236 16.1582 27.4554 19.6744 27.4554C23.1907 27.4554 26.34 25.236 27.5322 21.926C29.1232 21.4735 30.2287 19.9061 30.2287 18.0895C30.2287 16.8636 29.7026 15.6948 28.8177 14.9451L28.9475 14.2482C28.9475 13.9886 28.9296 13.735 28.9091 13.4809L28.8925 13.2783L28.7196 13.3857C26.3079 14.8814 22.4005 15.5505 19.5982 15.5505C16.8756 15.5505 13.0439 14.9088 10.6215 13.4749L10.445 13.4288L10.4304 13.6283C10.4154 13.8339 10.4004 14.0389 10.4025 14.2713L10.53 14.947C9.64574 15.6967 9.12012 16.8649 9.12012 18.0895Z" fill="white"/>
<path d="M27.8242 29.7719C27.0714 29.3055 26.3606 28.8651 25.785 28.4102L25.7118 28.3525L25.6358 28.4065C25.0978 28.7904 23.198 30.7636 21.6497 32.4043L20.7946 30.7424L21.2396 30.4239V28.7947H18.1092V30.4239L18.5543 30.7424L17.6989 32.405C16.15 30.7636 14.2493 28.7905 13.7118 28.4065L13.6358 28.3525L13.5626 28.4102C12.987 28.8651 12.276 29.3055 11.5234 29.7719C9.17738 31.2258 6.51855 32.8732 6.51855 35.8144C6.51855 37.5522 10.5999 40.0003 19.6739 40.0003C28.7478 40.0003 32.8292 37.5522 32.8292 35.8144C32.829 32.8732 30.17 31.2258 27.8242 29.7719Z" fill="white"/>
<path d="M10.287 10.2987C10.287 11.7557 14.6713 13.6039 19.5986 13.6039C24.5259 13.6039 28.9102 11.7558 28.9102 10.2987V8.29047L32.3088 6.9075V11.2795C31.9129 11.3414 31.6085 11.6847 31.6085 12.0959C31.6085 12.4477 31.8402 12.7547 32.1743 12.8656L31.4983 17.3274H34.6783L34.0024 12.8656C34.336 12.7546 34.5674 12.4477 34.5674 12.0959C34.5674 11.6823 34.2612 11.3384 33.8632 11.2783L33.8468 6.02852C33.8747 5.98 33.8747 5.92961 33.8747 5.90297C33.8747 5.87625 33.8747 5.82656 33.863 5.82656H33.8629C33.8424 5.63547 33.7058 5.46625 33.5066 5.385L32.6062 5.01625L20.9027 0.252969C20.4973 0.0873438 20.0464 0 19.5986 0C19.1508 0 18.7 0.0873438 18.2947 0.252969L5.69047 5.38562C5.4668 5.47719 5.32227 5.68039 5.32227 5.90297C5.32227 6.125 5.46664 6.3282 5.6907 6.42094L10.287 8.29031V10.2987Z" fill="white"/>
</svg>
