<svg width="40" height="40" viewBox="0 0 40 40" fill="none" xmlns="http://www.w3.org/2000/svg">
<path d="M37.4336 19.3836C36.8417 18.771 36.0326 18.4158 35.1809 18.3948C34.3293 18.3739 33.5037 18.6888 32.8824 19.2716L26.7234 24.7436C27.0348 25.3442 27.1967 26.0111 27.1954 26.6876C27.1921 27.56 26.9242 28.4109 26.4273 29.1279C25.9303 29.8449 25.2276 30.3943 24.4118 30.7036L19.2367 32.6476C19.0382 32.7185 18.8199 32.7088 18.6285 32.6206C18.4371 32.5323 18.2879 32.3726 18.2129 32.1756C18.175 32.078 18.1569 31.9739 18.1597 31.8692C18.1626 31.7645 18.1863 31.6615 18.2295 31.5661C18.2728 31.4707 18.3346 31.3849 18.4114 31.3138C18.4882 31.2426 18.5784 31.1875 18.6768 31.1516L23.8519 29.2076C24.3634 29.0133 24.8039 28.6684 25.1152 28.2185C25.4265 27.7685 25.594 27.2348 25.5956 26.6876C25.5759 25.981 25.2865 25.3087 24.7867 24.8089C24.2869 24.309 23.6147 24.0194 22.908 23.9996H7.99854C7.99856 23.7895 7.95719 23.5815 7.87681 23.3874C7.79643 23.1933 7.6786 23.0169 7.53005 22.8683C7.3815 22.7197 7.20514 22.6019 7.01104 22.5215C6.81694 22.441 6.60891 22.3997 6.39881 22.3996H3.19934C2.98924 22.3997 2.7812 22.441 2.58711 22.5215C2.39301 22.6019 2.21665 22.7197 2.0681 22.8683C1.91955 23.0169 1.80172 23.1933 1.72134 23.3874C1.64095 23.5815 1.59959 23.7895 1.59961 23.9996V36.7996C1.59958 37.2239 1.7681 37.6309 2.06811 37.9309C2.36812 38.231 2.77503 38.3996 3.19934 38.3996H6.39881C6.82312 38.3996 7.23003 38.231 7.53004 37.9309C7.83005 37.6309 7.99857 37.2239 7.99855 36.7996H11.238L12.2378 37.2076C15.3407 38.4914 18.7735 38.7459 22.0317 37.9338C25.2899 37.1216 28.2016 35.2856 30.3388 32.6956L37.6256 23.8876C38.1573 23.2465 38.432 22.4308 38.3965 21.5987C38.3611 20.7665 38.0179 19.9772 37.4336 19.3836ZM10.3981 35.1996H7.99854V25.5996H10.3981V35.1996ZM24.3341 1.59963C22.7558 1.59539 21.2242 2.13443 19.9965 3.12619C18.7688 2.13443 17.2372 1.59539 15.659 1.59963C13.8184 1.60423 12.0548 2.33869 10.755 3.64189C9.45529 4.94509 8.7255 6.71062 8.72576 8.55119C8.72576 15.8653 19.1498 22.0317 19.5935 22.291C19.7159 22.3622 19.8549 22.3996 19.9965 22.3996C20.1381 22.3996 20.2772 22.3622 20.3996 22.291C20.8433 22.0316 31.2673 15.8652 31.2673 8.55119C31.2676 6.71062 30.5378 4.94509 29.238 3.64189C27.9382 2.33869 26.1747 1.60423 24.3341 1.59963ZM22.9165 16.5253C22.7702 16.6454 22.5855 16.7087 22.3963 16.7036C22.2351 16.7024 22.078 16.6522 21.9459 16.5597C21.8138 16.4672 21.7129 16.3369 21.6565 16.1858C21.6001 16.0347 21.5909 15.8701 21.63 15.7137C21.6692 15.5573 21.755 15.4164 21.8759 15.3098C24.8372 12.7731 26.4681 10.3723 26.4681 8.55119C26.4698 7.98308 26.2461 7.4375 25.846 7.03415C25.4459 6.63079 24.9022 6.4026 24.3341 6.39963C24.1219 6.39963 23.9184 6.31535 23.7684 6.16532C23.6184 6.01529 23.5341 5.81181 23.5341 5.59963C23.5341 5.38746 23.6184 5.18398 23.7684 5.03395C23.9184 4.88392 24.1219 4.79963 24.3341 4.79963C25.3264 4.80306 26.2768 5.19998 26.9767 5.9033C27.6767 6.60663 28.0691 7.55891 28.0678 8.55119C28.0678 11.4941 25.2668 14.5113 22.9165 16.5253Z" fill="white"/>
</svg>
